HIERARCHY
ROOT reference
{
  OFFSET -65.3212 -1.93545 -120.338
  CHANNELS 6 Xposition Yposition Zposition Zrotation Xrotation Yrotation
  JOINT Hips
  {
    OFFSET 0 78.7191 0
    CHANNELS 6 Xposition Yposition Zposition Zrotation Xrotation Yrotation
    JOINT Chest
    {
      OFFSET 0 8.7983 -4.7612
      CHANNELS 6 Xposition Yposition Zposition Zrotation Xrotation Yrotation
      JOINT Chest2
      {
        OFFSET 0 8.0291 0.4195
        CHANNELS 6 Xposition Yposition Zposition Zrotation Xrotation Yrotation
        JOINT Chest3
        {
          OFFSET 0 9.9351 -2.2114
          CHANNELS 6 Xposition Yposition Zposition Zrotation Xrotation Yrotation
          JOINT Neck
          {
            OFFSET 0 22.3885 -0.4656
            CHANNELS 6 Xposition Yposition Zposition Zrotation Xrotation Yrotation
            JOINT Head
            {
              OFFSET -0.0001 12.643 3.4389
              CHANNELS 6 Xposition Yposition Zposition Zrotation Xrotation Yrotation
              End Site
              {
                OFFSET 0.0001 17.6655 0.5274
              }
            }
          }
          JOINT LeftCollar
          {
            OFFSET 2.2603 21.606 7.4023
            CHANNELS 6 Xposition Yposition Zposition Zrotation Xrotation Yrotation
            JOINT LeftShoulder
            {
              OFFSET 13.5163 -1.1332 -5.0146
              CHANNELS 6 Xposition Yposition Zposition Zrotation Xrotation Yrotation
              JOINT LeftElbow
              {
                OFFSET -0.0995 -28.05 -0.2431
                CHANNELS 6 Xposition Yposition Zposition Zrotation Xrotation Yrotation
                JOINT LeftWrist
                {
                  OFFSET 0.0679 -23.3996 -0.1402
                  CHANNELS 6 Xposition Yposition Zposition Zrotation Xrotation Yrotation
                  JOINT LeftFinger1
                  {
                    OFFSET 0.7932 -9.069 2.5189
                    CHANNELS 6 Xposition Yposition Zposition Zrotation Xrotation Yrotation
                    JOINT LeftFinger11
                    {
                      OFFSET -0.8272 -3.3923 0.5977
                      CHANNELS 6 Xposition Yposition Zposition Zrotation Xrotation Yrotation
                      JOINT LeftFinger12
                      {
                        OFFSET -0.5649 -2.3158 0.4082
                        CHANNELS 6 Xposition Yposition Zposition Zrotation Xrotation Yrotation
                        End Site
                        {
                          OFFSET -0.4919 -1.6479 0.2673
                        }
                      }
                    }
                  }
                  JOINT LeftFinger2
                  {
                    OFFSET 0.9159 -9.2044 0.2193
                    CHANNELS 6 Xposition Yposition Zposition Zrotation Xrotation Yrotation
                    JOINT LeftFinger21
                    {
                      OFFSET 0.0117 -4.1944 -0.0248
                      CHANNELS 6 Xposition Yposition Zposition Zrotation Xrotation Yrotation
                      JOINT LeftFinger22
                      {
                        OFFSET 0.0071 -2.3249 -0.0142
                        CHANNELS 6 Xposition Yposition Zposition Zrotation Xrotation Yrotation
                        End Site
                        {
                          OFFSET -0.1475 -2.0882 0.0028
                        }
                      }
                    }
                  }
                  JOINT LeftFinger3
                  {
                    OFFSET 0.6113 -8.7231 -2.0637
                    CHANNELS 6 Xposition Yposition Zposition Zrotation Xrotation Yrotation
                    JOINT LeftFinger31
                    {
                      OFFSET -0.1927 -3.8059 -0.2383
                      CHANNELS 6 Xposition Yposition Zposition Zrotation Xrotation Yrotation
                      JOINT LeftFinger32
                      {
                        OFFSET -0.1091 -2.1688 -0.1362
                        CHANNELS 6 Xposition Yposition Zposition Zrotation Xrotation Yrotation
                        End Site
                        {
                          OFFSET -0.2358 -1.9176 -0.0906
                        }
                      }
                    }
                  }
                  JOINT LeftFinger4
                  {
                    OFFSET -0.6151 -8.0947 -3.5641
                    CHANNELS 6 Xposition Yposition Zposition Zrotation Xrotation Yrotation
                    JOINT LeftFinger41
                    {
                      OFFSET -0.4882 -2.341 -0.6462
                      CHANNELS 6 Xposition Yposition Zposition Zrotation Xrotation Yrotation
                      JOINT LeftFinger42
                      {
                        OFFSET -0.3575 -1.7167 -0.4742
                        CHANNELS 6 Xposition Yposition Zposition Zrotation Xrotation Yrotation
                        End Site
                        {
                          OFFSET -0.4187 -1.5237 -0.3496
                        }
                      }
                    }
                  }
                  JOINT LeftFinger0
                  {
                    OFFSET -1.42 -1.8761 1.4223
                    CHANNELS 6 Xposition Yposition Zposition Zrotation Xrotation Yrotation
                    JOINT LeftFinger01
                    {
                      OFFSET -1.1471 -3.4929 2.6334
                      CHANNELS 6 Xposition Yposition Zposition Zrotation Xrotation Yrotation
                      JOINT LeftFinger02
                      {
                        OFFSET -0.823 -2.3 1.6571
                        CHANNELS 6 Xposition Yposition Zposition Zrotation Xrotation Yrotation
                        End Site
                        {
                          OFFSET -0.5822 -1.6914 1.1582
                        }
                      }
                    }
                  }
                }
              }
            }
          }
          JOINT RightCollar
          {
            OFFSET -2.2603 21.606 7.4023
            CHANNELS 6 Xposition Yposition Zposition Zrotation Xrotation Yrotation
            JOINT RightShoulder
            {
              OFFSET -13.5187 -1.1334 -5.0155
              CHANNELS 6 Xposition Yposition Zposition Zrotation Xrotation Yrotation
              JOINT RightElbow
              {
                OFFSET 0.0994 -28.0499 -0.2431
                CHANNELS 6 Xposition Yposition Zposition Zrotation Xrotation Yrotation
                JOINT RightWrist
                {
                  OFFSET -0.0679 -23.3996 -0.1402
                  CHANNELS 6 Xposition Yposition Zposition Zrotation Xrotation Yrotation
                  JOINT RightFinger1
                  {
                    OFFSET -0.7932 -9.0691 2.5189
                    CHANNELS 6 Xposition Yposition Zposition Zrotation Xrotation Yrotation
                    JOINT RightFinger11
                    {
                      OFFSET 0.8272 -3.3923 0.5977
                      CHANNELS 6 Xposition Yposition Zposition Zrotation Xrotation Yrotation
                      JOINT RightFinger12
                      {
                        OFFSET 0.565 -2.3158 0.4082
                        CHANNELS 6 Xposition Yposition Zposition Zrotation Xrotation Yrotation
                        End Site
                        {
                          OFFSET 0.4919 -1.6479 0.2673
                        }
                      }
                    }
                  }
                  JOINT RightFinger2
                  {
                    OFFSET -0.916 -9.2044 0.2193
                    CHANNELS 6 Xposition Yposition Zposition Zrotation Xrotation Yrotation
                    JOINT RightFinger21
                    {
                      OFFSET -0.0117 -4.1944 -0.0248
                      CHANNELS 6 Xposition Yposition Zposition Zrotation Xrotation Yrotation
                      JOINT RightFinger22
                      {
                        OFFSET -0.0071 -2.3249 -0.0142
                        CHANNELS 6 Xposition Yposition Zposition Zrotation Xrotation Yrotation
                        End Site
                        {
                          OFFSET 0.1475 -2.0882 0.0028
                        }
                      }
                    }
                  }
                  JOINT RightFinger3
                  {
                    OFFSET -0.6113 -8.7231 -2.0637
                    CHANNELS 6 Xposition Yposition Zposition Zrotation Xrotation Yrotation
                    JOINT RightFinger31
                    {
                      OFFSET 0.1927 -3.8059 -0.2383
                      CHANNELS 6 Xposition Yposition Zposition Zrotation Xrotation Yrotation
                      JOINT RightFinger32
                      {
                        OFFSET 0.1091 -2.1688 -0.1362
                        CHANNELS 6 Xposition Yposition Zposition Zrotation Xrotation Yrotation
                        End Site
                        {
                          OFFSET 0.2358 -1.9176 -0.0906
                        }
                      }
                    }
                  }
                  JOINT RightFinger4
                  {
                    OFFSET 0.6151 -8.0947 -3.564
                    CHANNELS 6 Xposition Yposition Zposition Zrotation Xrotation Yrotation
                    JOINT RightFinger41
                    {
                      OFFSET 0.4882 -2.341 -0.6462
                      CHANNELS 6 Xposition Yposition Zposition Zrotation Xrotation Yrotation
                      JOINT RightFinger42
                      {
                        OFFSET 0.3574 -1.7166 -0.4742
                        CHANNELS 6 Xposition Yposition Zposition Zrotation Xrotation Yrotation
                        End Site
                        {
                          OFFSET 0.4187 -1.5237 -0.3496
                        }
                      }
                    }
                  }
                  JOINT RightFinger0
                  {
                    OFFSET 1.4199 -1.8761 1.4221
                    CHANNELS 6 Xposition Yposition Zposition Zrotation Xrotation Yrotation
                    JOINT RightFinger01
                    {
                      OFFSET 1.1472 -3.4929 2.6336
                      CHANNELS 6 Xposition Yposition Zposition Zrotation Xrotation Yrotation
                      JOINT RightFinger02
                      {
                        OFFSET 0.8229 -2.3 1.6571
                        CHANNELS 6 Xposition Yposition Zposition Zrotation Xrotation Yrotation
                        End Site
                        {
                          OFFSET 0.5822 -1.6914 1.1582
                        }
                      }
                    }
                  }
                }
              }
            }
          }
        }
      }
    }
    JOINT RightHip
    {
      OFFSET -9.412 3.9771 -0.7758
      CHANNELS 6 Xposition Yposition Zposition Zrotation Xrotation Yrotation
      JOINT RightKnee
      {
        OFFSET -0.7531 -40.938 0
        CHANNELS 6 Xposition Yposition Zposition Zrotation Xrotation Yrotation
        JOINT RightAnkle
        {
          OFFSET 0 -40.1986 0
          CHANNELS 6 Xposition Yposition Zposition Zrotation Xrotation Yrotation
          JOINT RightToe
          {
            OFFSET 0 -4.4182 9.239
            CHANNELS 6 Xposition Yposition Zposition Zrotation Xrotation Yrotation
            End Site
            {
              OFFSET 0 0 6.1981
            }
          }
        }
      }
    }
    JOINT LeftHip
    {
      OFFSET 9.4119 3.9773 -0.7758
      CHANNELS 6 Xposition Yposition Zposition Zrotation Xrotation Yrotation
      JOINT LeftKnee
      {
        OFFSET 0.7532 -40.9383 0
        CHANNELS 6 Xposition Yposition Zposition Zrotation Xrotation Yrotation
        JOINT LeftAnkle
        {
          OFFSET 0 -40.1986 0
          CHANNELS 6 Xposition Yposition Zposition Zrotation Xrotation Yrotation
          JOINT LeftToe
          {
            OFFSET 0 -4.4182 9.239
            CHANNELS 6 Xposition Yposition Zposition Zrotation Xrotation Yrotation
            End Site
            {
              OFFSET 0 0 6.1981
            }
          }
        }
      }
    }
  }
}
MOTION
Frames:	4
Frame Time:	0.0333333
-38.2952 -3.48887 -49.628 0 0 -0 7.10543e-015 78.7191 0 -0.629987 6.11145 101.885 0 8.7983 -4.7612 0.00562735 -2.15305 1.02201 0 8.0291 0.4195 0.0497643 -4.30564 2.04638 -1.42109e-014 9.9351 -2.2114 0.0497672 -4.30565 2.0464 -1.42109e-014 22.3885 -0.4656 -0.568413 13.6127 -8.57849 -0.0001 12.643 3.4389 -6.32863 -1.1007 -8.81008 2.2603 21.606 7.4023 0.496454 0.856154 -4.26281 13.5163 -1.1332 -5.0146 4.0636 31.657 27.2185 -0.0995 -28.05 -0.2431 -10.3713 -22.1165 -10.3199 0.0679 -23.3996 -0.1402 -12.0597 1.41048 41.7653 0.7932 -9.069 2.5189 -3.94529e-005 0.000169978 0.000155417 -0.8272 -3.3923 0.5977 0.000324227 -4.95054e-005 -0.000233719 -0.5649 -2.3158 0.4082 -0.000163997 5.81084e-005 2.3923e-005 0.9159 -9.2044 0.2193 2.03447 -1.26687 0.222426 0.0117 -4.1944 -0.0248 -0.16786 -0.876184 0.19608 0.0071 -2.3249 -0.0142 2.03555 -1.26785 0.222671 0.6113 -8.7231 -2.0637 2.14486 -6.29389 2.63956 -0.1927 -3.8059 -0.2383 -0.361925 -2.21293 0.750578 -0.1091 -2.1688 -0.1362 4.5101 -3.05779 0.715173 -0.6151 -8.0947 -3.5641 11.4153 -7.35225 2.60521 -0.4882 -2.341 -0.6462 -0.0649134 -1.73708 1.50188 -0.3575 -1.7167 -0.4742 2.78866 -1.86625 0.506477 -1.42 -1.8761 1.4223 0.000209881 2.51119e-006 -0.000397583 -1.1471 -3.4929 2.6334 -0.000172427 1.10707e-005 0.000280869 -0.823 -2.3 1.6571 -0.000170222 5.51471e-005 1.44588e-005 -2.2603 21.606 7.4023 -44.4594 -1.12556 12.6019 -13.5187 -1.1334 -5.0155 -93.0996 9.48618 -52.0672 0.0994 -28.0499 -0.2431 -3.48069 -25.7826 -35.2472 -0.0679 -23.3996 -0.1402 5.24749 6.54723 -23.1117 -0.7932 -9.0691 2.5189 -26.3168 9.86706 9.08438 0.8272 -3.3923 0.5977 39.4242 12.0338 -4.97715 0.565 -2.3158 0.4082 38.7304 11.8651 -4.82269 -0.916 -9.2044 0.2193 -2.23351 10.2523 5.03866 -0.0117 -4.1944 -0.0248 52.3753 15.6205 -6.40199 -0.0071 -2.3249 -0.0142 44.0892 13.7161 -4.48628 -0.6113 -8.7231 -2.0637 15.0073 7.58699 -5.70557 0.1927 -3.8059 -0.2383 37.2884 13.8497 -2.53198 0.1091 -2.1688 -0.1362 38.5715 14.2637 -2.77358 0.6151 -8.0947 -3.564 23.054 4.37547 -8.90254 0.4882 -2.341 -0.6462 30.7449 11.5431 -0.515151 0.3574 -1.7166 -0.4742 30.6849 11.5225 -0.506238 1.4199 -1.8761 1.4221 7.91156 0.880281 52.6243 1.1472 -3.4929 2.6336 -0.671221 1.52911 0.489015 0.8229 -2.3 1.6571 -4.02431 8.6295 3.04557 -9.412 3.9771 -0.7758 -4.12667 -16.8147 45.6069 -0.7531 -40.938 7.10543e-015 14.7218 47.003 -7.84806 0 -40.1986 3.55271e-015 -14.3971 -3.17313 -22.4251 0 -4.4182 9.239 25.2849 -3.25469 -8.10981 9.4119 3.9773 -0.7758 -22.6692 3.30514 -2.02869 0.7532 -40.9383 -7.10543e-015 0.440615 -0.000229873 0.623378 0 -40.1986 0 8.93722 -2.41454 -5.452 0 -4.4182 9.239 5.77032 5.01454 -0.811583 
-38.433 -3.53931 -49.7197 0 0 -0 7.10543e-015 78.7191 0 -1.15986 6.36775 102.442 0 8.7983 -4.7612 -0.198784 -2.11726 0.917569 1.42109e-014 8.0291 0.4195 -0.363954 -4.23744 1.82963 0 9.9351 -2.2114 -0.363955 -4.23744 1.82965 -1.42109e-014 22.3885 -0.4656 -0.317987 13.3452 -9.47569 -0.0001 12.643 3.4389 -6.57371 -1.10547 -9.67001 2.2603 21.606 7.4023 0.954135 0.826059 -4.5882 13.5163 -1.1332 -5.0146 4.25144 31.531 26.92 -0.0995 -28.05 -0.2431 -10.196 -20.992 -10.7925 0.0679 -23.3996 -0.1402 -12.8748 3.16744 39.1866 0.7932 -9.069 2.5189 -0.343428 0.459687 -0.0924552 -0.8272 -3.3923 0.5977 -0.253746 0.15801 -0.0135171 -0.5649 -2.3158 0.4082 -0.313869 0.195211 -0.0162654 0.9159 -9.2044 0.2193 1.71753 -1.02632 0.103702 0.0117 -4.1944 -0.0248 -0.136228 -0.69495 0.15883 0.0071 -2.3249 -0.0142 1.72591 -1.07578 0.185943 0.6113 -8.7231 -2.0637 1.83155 -5.99352 2.55441 -0.1927 -3.8059 -0.2383 -0.327053 -1.97839 0.681972 -0.1091 -2.1688 -0.1362 4.14409 -2.81302 0.648434 -0.6151 -8.0947 -3.5641 10.8267 -7.05123 2.46963 -0.4882 -2.341 -0.6462 -0.060828 -1.55706 1.35714 -0.3575 -1.7167 -0.4742 2.46601 -1.65221 0.443385 -1.42 -1.8761 1.4223 0.134757 0.308713 -0.0773836 -1.1471 -3.4929 2.6334 -0.0380386 -0.0502002 0.010697 -0.823 -2.3 1.6571 0.0850021 0.112971 -0.0235715 -2.2603 21.606 7.4023 -44.8467 -1.10637 12.5504 -13.5187 -1.1334 -5.0155 -91.7649 10.66 -51.4817 0.0994 -28.0499 -0.2431 -3.93987 -26.0945 -35.7532 -0.0679 -23.3996 -0.1402 5.64518 6.21292 -24.1402 -0.7932 -9.0691 2.5189 -26.3168 9.86706 9.08438 0.8272 -3.3923 0.5977 39.4242 12.0338 -4.97715 0.565 -2.3158 0.4082 38.7304 11.8651 -4.82266 -0.916 -9.2044 0.2193 -2.23351 10.2523 5.03867 -0.0117 -4.1944 -0.0248 52.3753 15.6205 -6.40199 -0.0071 -2.3249 -0.0142 44.0892 13.7161 -4.48627 -0.6113 -8.7231 -2.0637 15.0073 7.58701 -5.70557 0.1927 -3.8059 -0.2383 37.2884 13.8497 -2.53196 0.1091 -2.1688 -0.1362 38.5715 14.2637 -2.7736 0.6151 -8.0947 -3.564 23.054 4.37546 -8.90254 0.4882 -2.341 -0.6462 30.7457 11.5434 -0.515084 0.3574 -1.7166 -0.4742 30.6849 11.5225 -0.506226 1.4199 -1.8761 1.4221 7.91155 0.880272 52.6243 1.1472 -3.4929 2.6336 -0.671242 1.52911 0.489012 0.8229 -2.3 1.6571 -4.0243 8.6295 3.04557 -9.412 3.9771 -0.7758 -4.4624 -17.51 45.5209 -0.7531 -40.938 -7.10543e-015 15.2834 47.6232 -8.37469 0 -40.1986 0 -13.8356 -3.07494 -22.4664 0 -4.4182 9.239 24.944 -2.84041 -8.15427 9.4119 3.9773 -0.7758 -23.0612 2.9778 -2.64908 0.7532 -40.9383 0 0.421903 -0.0487461 0.498758 7.10543e-015 -40.1986 -7.10543e-015 8.59041 -2.42297 -5.07932 7.10543e-015 -4.4182 9.239 5.74298 5.23159 -0.833293 
-38.5217 -3.58465 -49.7356 0 0 -0 7.10543e-015 78.7191 0 -1.65439 6.65167 102.772 0 8.7983 -4.7612 -0.410094 -2.07932 0.90169 0 8.0291 0.4195 -0.788148 -4.1648 1.79018 -1.42109e-014 9.9351 -2.2114 -0.78815 -4.16479 1.79018 7.10543e-015 22.3885 -0.4656 0.300497 13.5129 -10.0009 -0.0001 12.643 3.4389 -6.99847 -1.34304 -10.3444 2.2603 21.606 7.4023 1.3683 0.792556 -4.93793 13.5163 -1.1332 -5.0146 4.25618 31.9479 26.8627 -0.0995 -28.05 -0.2431 -9.90786 -20.2107 -11.751 0.0679 -23.3996 -0.1402 -13.3496 4.22085 38.4413 0.7932 -9.069 2.5189 -1.27397 1.70718 -0.339914 -0.8272 -3.3923 0.5977 -0.943229 0.58732 -0.0460494 -0.5649 -2.3158 0.4082 -1.16504 0.72533 -0.0551134 0.9159 -9.2044 0.2193 0.858353 -0.372443 -0.213216 0.0117 -4.1944 -0.0248 -0.0499033 -0.204671 0.0497972 0.0071 -2.3249 -0.0142 0.886334 -0.553559 0.0915048 0.6113 -8.7231 -2.0637 0.997679 -5.18515 2.33323 -0.1927 -3.8059 -0.2383 -0.231019 -1.34527 0.48438 -0.1091 -2.1688 -0.1362 3.1524 -2.14658 0.475238 -0.6151 -8.0947 -3.5641 9.23486 -6.22584 2.12063 -0.4882 -2.341 -0.6462 -0.0484981 -1.07398 0.957492 -0.3575 -1.7167 -0.4742 1.59552 -1.07406 0.284673 -1.42 -1.8761 1.4223 0.473775 1.07966 -0.271301 -1.1471 -3.4929 2.6334 -0.140704 -0.18654 0.0388505 -0.823 -2.3 1.6571 0.316411 0.41935 -0.0884311 -2.2603 21.606 7.4023 -44.9954 -1.08763 12.2225 -13.5187 -1.1334 -5.0155 -90.8428 11.7486 -50.4344 0.0994 -28.0499 -0.2431 -4.2386 -26.3072 -35.4304 -0.0679 -23.3996 -0.1402 6.05848 5.75388 -26.1829 -0.7932 -9.0691 2.5189 -26.3168 9.86702 9.08438 0.8272 -3.3923 0.5977 39.4242 12.0338 -4.97716 0.565 -2.3158 0.4082 38.7304 11.8651 -4.82267 -0.916 -9.2044 0.2193 -2.2335 10.2523 5.03866 -0.0117 -4.1944 -0.0248 52.3753 15.6205 -6.40198 -0.00710001 -2.3249 -0.0142 44.0892 13.7161 -4.48628 -0.6113 -8.7231 -2.0637 15.0073 7.58701 -5.70557 0.1927 -3.8059 -0.2383 37.2884 13.8497 -2.53198 0.1091 -2.1688 -0.1362 38.5715 14.2637 -2.77356 0.6151 -8.0947 -3.564 23.054 4.37547 -8.90255 0.4882 -2.341 -0.6462 30.7466 11.5438 -0.515036 0.3574 -1.7166 -0.4742 30.685 11.5225 -0.506232 1.4199 -1.8761 1.4221 7.91157 0.880266 52.6243 1.1472 -3.4929 2.6336 -0.671236 1.52911 0.489019 0.8229 -2.3 1.6571 -4.02432 8.62951 3.04558 -9.412 3.9771 -0.7758 -4.43746 -18.0648 46.3116 -0.7531 -40.938 -7.10543e-015 15.8448 48.3533 -9.02087 0 -40.1986 0 -13.0741 -2.7679 -22.624 -7.10543e-015 -4.4182 9.239 23.986 -1.95923 -8.12466 9.4119 3.9773 -0.7758 -23.3936 2.57434 -1.98801 0.7532 -40.9383 0 0.38358 0.0157587 0.297122 -7.10543e-015 -40.1986 0 8.36619 -2.51088 -5.99968 -7.10543e-015 -4.4182 9.239 5.7532 5.14675 -0.823945 
-38.6488 -3.63042 -49.7145 0 0 -0 7.10543e-015 78.7191 0 -2.20176 7.07154 103.596 0 8.7983 -4.7612 -0.6606 -2.00993 0.891353 0 8.0291 0.4195 -1.29101 -4.02977 1.76106 0 9.9351 -2.2114 -1.29101 -4.02977 1.76107 -7.10543e-015 22.3885 -0.4656 1.04479 13.7309 -10.4856 -0.0001 12.643 3.4389 -7.38263 -1.45339 -10.5884 2.2603 21.606 7.4023 1.76471 0.75442 -5.31799 13.5163 -1.1332 -5.0146 4.29751 32.4238 26.8618 -0.0995 -28.05 -0.2431 -9.48665 -19.6359 -12.43 0.0679 -23.3996 -0.1402 -13.789 5.24436 38.3143 0.7932 -9.069 2.5189 -2.64196 3.54577 -0.694229 -0.8272 -3.3923 0.5977 -1.95903 1.22061 -0.0845487 -0.5649 -2.3158 0.4082 -2.41901 1.50744 -0.0979785 0.9159 -9.2044 0.2193 -0.405714 0.593667 -0.665954 0.0117 -4.1944 -0.0248 -1.18957 0.745667 -0.109437 0.0071 -2.3249 -0.0142 -0.349389 0.218453 -0.0336929 0.6113 -8.7231 -2.0637 -0.220445 -3.98447 2.01769 -0.1927 -3.8059 -0.2383 -0.0857155 -0.42238 0.162922 -0.1091 -2.1688 -0.1362 1.6953 -1.15927 0.241212 -0.6151 -8.0947 -3.5641 6.90375 -4.98877 1.6571 -0.4882 -2.341 -0.6462 -0.0267297 -0.377427 0.35057 -0.3575 -1.7167 -0.4742 0.309782 -0.210877 0.0576224 -1.42 -1.8761 1.4223 0.921126 2.09204 -0.528094 -1.1471 -3.4929 2.6334 -0.291939 -0.387589 0.0798746 -0.823 -2.3 1.6571 0.658085 0.870334 -0.186229 -2.2603 21.606 7.4023 -45.1022 -1.04219 11.7746 -13.5187 -1.1334 -5.0155 -89.9868 13.3351 -49.0401 0.0994 -28.0499 -0.2431 -4.6997 -26.8174 -35.1552 -0.0679 -23.3996 -0.1402 6.51674 5.50746 -28.4181 -0.793201 -9.0691 2.5189 -26.3168 9.86705 9.0844 0.8272 -3.3923 0.5977 39.4242 12.0338 -4.97713 0.565 -2.3158 0.4082 38.7303 11.8651 -4.82265 -0.916001 -9.2044 0.2193 -2.2335 10.2523 5.03867 -0.0117 -4.1944 -0.0248 52.3753 15.6205 -6.40196 -0.00710001 -2.3249 -0.0142 44.0892 13.7161 -4.48627 -0.6113 -8.7231 -2.0637 15.0074 7.58701 -5.70557 0.1927 -3.8059 -0.2383 37.2883 13.8496 -2.53194 0.1091 -2.1688 -0.1362 38.5715 14.2637 -2.77357 0.615101 -8.0947 -3.564 23.054 4.37546 -8.90255 0.4882 -2.341 -0.6462 30.7474 11.5442 -0.514953 0.3574 -1.7166 -0.4742 30.6849 11.5225 -0.506205 1.4199 -1.8761 1.4221 7.91155 0.880275 52.6243 1.1472 -3.4929 2.6336 -0.671237 1.52909 0.489023 0.822901 -2.3 1.6571 -4.0243 8.62949 3.04557 -9.412 3.9771 -0.7758 -4.67399 -18.6954 46.4962 -0.7531 -40.938 -1.42109e-014 16.592 49.2766 -9.8816 0 -40.1986 0 -12.2395 -2.7641 -22.5568 0 -4.4182 9.239 22.6388 -0.732052 -8.03578 9.4119 3.9773 -0.7758 -23.8449 2.30543 -1.89474 0.7532 -40.9383 7.10543e-015 0.336549 -0.0202615 0.0479616 0 -40.1986 7.10543e-015 8.03197 -2.45646 -6.51337 7.10543e-015 -4.4182 9.239 5.76806 5.02347 -0.810259 
